<?xml version="1.0" standalone="no"?>
<!DOCTYPE svg PUBLIC "-//W3C//DTD SVG 20010904//EN"
 "http://www.w3.org/TR/2001/REC-SVG-20010904/DTD/svg10.dtd">
<svg version="1.0" xmlns="http://www.w3.org/2000/svg"
 width="512.000000pt" height="512.000000pt" viewBox="0 0 512.000000 512.000000"
 preserveAspectRatio="xMidYMid meet">
<metadata>
Created by potrace 1.14, written by Peter Selinger 2001-2017
</metadata>
<g transform="translate(0.000000,512.000000) scale(0.100000,-0.100000)"
fill="#000000" stroke="none">
<path d="M4076 4821 c-5 -8 -122 -399 -201 -671 -31 -107 -61 -205 -66 -218
-5 -13 -9 -27 -9 -32 0 -6 92 -10 234 -10 l234 0 261 465 c143 256 261 467
261 468 0 7 -710 5 -714 -2z"/>
<path d="M2447 4043 c-1 -1 -38 -4 -82 -8 -77 -6 -310 -50 -330 -63 -5 -4 -18
-8 -28 -9 -36 -6 -220 -86 -298 -130 -301 -169 -538 -443 -663 -768 -37 -98
-81 -260 -91 -340 -4 -27 -11 -77 -15 -110 -9 -63 -5 -391 5 -460 44 -282 128
-507 266 -714 68 -102 208 -254 291 -316 29 -22 55 -42 58 -45 17 -17 130 -85
206 -123 129 -65 301 -122 424 -142 19 -3 58 -9 85 -14 163 -29 453 -20 640
20 28 6 60 12 72 15 130 25 371 134 518 232 164 111 361 316 446 467 100 177
161 338 194 510 5 22 10 47 11 55 2 8 6 35 9 60 3 25 8 61 10 80 6 44 6 282 1
335 -18 155 -21 179 -42 270 -41 182 -142 412 -236 540 -112 151 -241 282
-359 361 -41 27 -76 52 -79 55 -8 10 -181 96 -247 123 -80 33 -256 82 -324 91
-30 4 -56 8 -59 10 -17 11 -374 28 -383 18z m308 -723 c281 -75 472 -272 559
-574 31 -107 38 -156 41 -308 10 -508 -248 -865 -685 -947 -55 -10 -243 -8
-290 3 -14 3 -38 8 -54 12 -51 11 -165 62 -220 99 -101 67 -197 179 -258 300
-30 58 -74 193 -82 251 -4 22 -9 51 -12 64 -12 55 -10 293 2 385 36 256 146
461 318 590 94 70 229 126 339 141 23 4 43 8 45 9 13 12 229 -7 297 -25z"/>
</g>
</svg>
